<?xml version="1.0" standalone="no"?>
<!DOCTYPE svg PUBLIC "-//W3C//DTD SVG 20010904//EN"
 "http://www.w3.org/TR/2001/REC-SVG-20010904/DTD/svg10.dtd">
<svg version="1.0" xmlns="http://www.w3.org/2000/svg"
 width="250.000000pt" height="250.000000pt" viewBox="0 0 250.000000 250.000000"
 preserveAspectRatio="xMidYMid meet">

<g transform="translate(0.000000,250.000000) scale(0.100000,-0.100000)"
fill="#000000" stroke="none">
<path d="M180 2491 c-69 -21 -121 -65 -156 -131 -18 -34 -19 -80 -19 -1110 0
-1030 1 -1076 19 -1110 26 -49 64 -88 111 -113 l40 -22 1075 0 1075 0 40 22
c47 25 85 64 111 113 18 34 19 80 19 1110 l0 1075 -22 40 c-25 47 -64 85 -113
111 -33 18 -82 19 -1095 21 -583 1 -1071 -2 -1085 -6z m2090 -1241 l0 -1020
-295 0 -295 0 2 383 3 382 146 3 146 3 20 162 c11 89 18 165 16 170 -2 4 -78
7 -169 7 l-164 0 1 133 c1 224 14 240 215 245 l134 4 0 153 0 152 -61 7 c-172
17 -342 1 -427 -43 -58 -30 -125 -94 -155 -148 -46 -85 -57 -151 -57 -335 l0
-167 -147 -3 -148 -3 -3 -167 -2 -167 147 -3 148 -3 3 -382 2 -383 -550 0
-550 0 0 1020 0 1020 1020 0 1020 0 0 -1020z"/>
</g>
</svg>
