<?xml version="1.0" standalone="no"?>
<!DOCTYPE svg PUBLIC "-//W3C//DTD SVG 20010904//EN"
 "http://www.w3.org/TR/2001/REC-SVG-20010904/DTD/svg10.dtd">
<svg version="1.0" xmlns="http://www.w3.org/2000/svg"
 width="250.000000pt" height="250.000000pt" viewBox="0 0 250.000000 250.000000"
 preserveAspectRatio="xMidYMid meet">

<g transform="translate(0.000000,250.000000) scale(0.100000,-0.100000)"
fill="#000000" stroke="none">
<path d="M1130 2494 c-243 -31 -451 -113 -630 -248 -421 -317 -600 -871 -443
-1370 62 -198 158 -353 312 -507 119 -119 235 -200 372 -261 116 -51 150 -57
178 -29 19 19 21 32 21 144 l0 123 -117 -1 c-108 0 -123 2 -173 27 -72 36
-100 66 -150 165 -39 77 -73 117 -145 169 -41 29 -29 54 27 54 58 -1 134 -43
175 -100 100 -135 138 -160 244 -159 35 0 80 6 99 13 30 11 38 20 52 64 9 29
26 66 38 83 12 16 21 31 19 33 -2 1 -40 10 -84 18 -306 60 -451 229 -471 548
-9 141 27 270 100 357 22 26 24 35 16 64 -15 52 -12 189 6 249 l16 53 56 -6
c59 -5 158 -44 242 -96 l47 -29 64 16 c91 23 408 23 499 0 62 -16 65 -16 91 3
63 45 198 101 256 106 l59 5 13 -38 c18 -58 26 -195 12 -247 -10 -44 -10 -47
28 -104 62 -91 83 -169 83 -293 -1 -336 -155 -527 -470 -587 l-91 -17 20 -27
c49 -70 53 -92 59 -344 l5 -239 27 -16 c25 -13 32 -13 80 4 403 140 719 511
805 943 28 140 23 358 -10 500 -115 494 -484 855 -982 958 -79 16 -288 27
-355 19z"/>
<path d="M440 710 c0 -5 7 -10 15 -10 8 0 15 5 15 10 0 6 -7 10 -15 10 -8 0
-15 -4 -15 -10z"/>
<path d="M492 668 c3 -7 13 -15 22 -16 12 -3 17 1 14 10 -3 7 -13 15 -22 16
-12 3 -17 -1 -14 -10z"/>
<path d="M540 606 c0 -7 6 -19 14 -25 19 -16 32 5 16 24 -16 19 -30 19 -30 1z"/>
<path d="M600 530 c0 -11 2 -20 4 -20 2 0 11 -3 20 -6 11 -4 16 0 16 14 0 11
-7 23 -16 26 -23 9 -24 8 -24 -14z"/>
<path d="M680 480 c0 -15 38 -32 45 -20 3 5 3 15 0 20 -8 13 -45 13 -45 0z"/>
<path d="M885 480 c-4 -7 -3 -16 3 -22 14 -14 45 -2 40 15 -6 16 -34 21 -43 7z"/>
<path d="M791 471 c-18 -12 -5 -31 20 -31 14 0 19 6 17 17 -4 20 -18 26 -37
14z"/>
</g>
</svg>
