<?xml version="1.0" standalone="no"?>
<!DOCTYPE svg PUBLIC "-//W3C//DTD SVG 20010904//EN"
 "http://www.w3.org/TR/2001/REC-SVG-20010904/DTD/svg10.dtd">
<svg version="1.0" xmlns="http://www.w3.org/2000/svg"
 width="226.000000pt" height="250.000000pt" viewBox="0 0 226.000000 250.000000"
 preserveAspectRatio="xMidYMid meet">

<g transform="translate(0.000000,250.000000) scale(0.100000,-0.100000)"
fill="#000000" stroke="none">
<path d="M1040 2466 c-68 -22 -294 -133 -367 -179 -24 -15 -46 -27 -50 -27 -5
0 -30 -16 -57 -35 -27 -19 -55 -35 -62 -35 -7 0 -33 -16 -58 -35 -26 -19 -48
-35 -50 -35 -11 0 -144 -87 -213 -139 -130 -98 -134 -105 -149 -223 -26 -203
-36 -512 -25 -719 12 -210 27 -349 43 -390 16 -44 100 -116 241 -207 32 -20
86 -55 120 -78 34 -22 83 -51 109 -64 27 -13 48 -27 48 -31 0 -3 15 -12 33
-20 17 -7 50 -24 72 -38 78 -48 331 -168 392 -186 61 -18 65 -18 125 0 62 18
348 154 378 179 8 7 33 21 55 31 21 10 57 31 79 46 21 16 43 29 48 29 5 0 54
29 109 65 54 36 102 65 104 65 3 0 47 31 98 68 99 73 144 120 151 155 17 80
29 218 41 467 7 137 -9 486 -29 630 -17 118 -24 129 -136 208 -36 26 -69 52
-75 58 -11 13 -143 94 -153 94 -3 0 -15 9 -26 19 -12 11 -43 31 -71 45 -27 14
-65 36 -84 50 -19 14 -39 26 -43 26 -5 0 -27 12 -51 27 -71 45 -316 163 -381
184 -74 23 -84 23 -166 -5z m-94 -530 c50 -48 85 -89 82 -97 -3 -8 -20 -15
-40 -17 l-35 -3 -6 -121 c-4 -67 -7 -183 -7 -260 l0 -138 191 0 191 0 -3 213
-4 212 85 3 c141 5 126 73 122 -527 l-4 -520 43 -3 c23 -2 44 -8 46 -14 6 -18
-162 -184 -185 -184 -24 0 -195 167 -189 184 2 6 22 12 45 14 l42 3 0 220 0
219 -192 0 -191 0 6 -185 c5 -136 4 -186 -5 -191 -13 -8 -188 -7 -196 1 -3 2
-4 202 -3 444 1 241 -1 481 -5 534 l-7 96 -35 3 c-20 2 -37 9 -40 16 -5 17
165 182 189 182 10 0 58 -37 105 -84z"/>
</g>
</svg>
