<?xml version="1.0" standalone="no"?>
<!DOCTYPE svg PUBLIC "-//W3C//DTD SVG 20010904//EN"
 "http://www.w3.org/TR/2001/REC-SVG-20010904/DTD/svg10.dtd">
<svg version="1.0" xmlns="http://www.w3.org/2000/svg"
 width="250.000000pt" height="250.000000pt" viewBox="0 0 250.000000 250.000000"
 preserveAspectRatio="xMidYMid meet">

<g transform="translate(0.000000,250.000000) scale(0.100000,-0.100000)"
fill="#000000" stroke="none">
<path d="M339 2466 c-156 -55 -276 -184 -323 -348 -14 -50 -16 -148 -16 -876
l0 -821 26 -73 c59 -164 168 -273 329 -328 56 -19 84 -20 896 -20 l839 0 66
25 c84 32 126 57 187 114 58 54 108 135 136 220 21 63 21 79 21 886 0 895 2
863 -57 979 -31 60 -119 155 -183 196 -25 16 -73 39 -105 50 -56 19 -83 20
-904 20 l-846 0 -66 -24z m1682 -75 c73 -7 110 -16 153 -37 109 -53 193 -164
216 -283 13 -70 14 -1579 0 -1649 -22 -120 -106 -229 -218 -284 -66 -33 -67
-33 -257 -39 -251 -7 -1101 -7 -1335 1 -182 6 -186 6 -251 38 -82 39 -149 110
-192 200 l-32 67 0 840 0 840 23 58 c32 77 122 174 199 212 49 24 75 30 168
35 167 10 1417 10 1526 1z"/>
<path d="M479 2062 c-168 -87 -166 -322 4 -409 61 -30 159 -35 217 -11 143 61
191 231 100 356 -66 91 -213 120 -321 64z m203 -83 c45 -24 77 -101 64 -153
-3 -14 -17 -38 -31 -55 -72 -85 -225 -55 -256 50 -14 46 -1 105 30 133 46 41
139 53 193 25z"/>
<path d="M390 1591 l-25 -7 -3 -609 c-2 -480 0 -610 10 -617 7 -4 110 -8 229
-8 197 0 217 2 232 18 15 17 17 73 17 603 0 489 -2 588 -14 605 -13 18 -29 19
-218 21 -112 1 -214 -2 -228 -6z m360 -616 l0 -525 -150 0 -150 0 0 525 0 525
150 0 150 0 0 -525z"/>
<path d="M930 1587 l-25 -13 -3 -593 c-2 -542 -1 -596 14 -613 16 -16 36 -18
233 -18 158 1 220 4 233 13 14 12 17 52 20 377 4 408 4 412 74 445 41 19 97
14 128 -13 45 -41 46 -52 46 -430 0 -335 1 -360 18 -375 16 -15 47 -17 229
-17 116 0 218 3 227 6 14 5 16 52 16 419 0 463 -2 478 -75 600 -45 75 -66 97
-130 140 -89 59 -163 78 -290 73 -111 -4 -120 -6 -237 -66 -5 -2 -8 6 -8 17 0
12 -9 30 -20 41 -19 19 -33 20 -222 20 -144 0 -210 -4 -228 -13z m368 -152 c3
-64 11 -80 44 -88 15 -4 35 7 77 47 69 66 100 82 183 96 169 30 328 -52 399
-204 41 -88 48 -166 49 -523 l0 -313 -149 0 -148 0 -5 343 c-4 304 -6 346 -22
377 -44 85 -103 120 -203 120 -100 0 -156 -39 -203 -142 -18 -40 -20 -67 -20
-370 l0 -328 -150 0 -150 0 0 518 c0 285 3 522 7 526 4 3 70 5 147 4 l141 -3
3 -60z"/>
</g>
</svg>
